<?xml version="1.0" encoding="UTF-8"?>
<!-- Generator: Adobe Illustrator 22.1.0, SVG Export Plug-In . SVG Version: 6.00 Build 0)  -->
<!DOCTYPE svg PUBLIC "-//W3C//DTD SVG 1.1//EN" "http://www.w3.org/Graphics/SVG/1.1/DTD/svg11.dtd">
<svg version="1.1" id="Ebene_1" xmlns="http://www.w3.org/2000/svg" xmlns:xlink="http://www.w3.org/1999/xlink" x="0px" y="0px" width="706.8px" height="140.3px" viewBox="0 0 706.8 140.3" style="enable-background:new 0 0 706.8 140.3;" xml:space="preserve">
<style type="text/css">
	.st0{fill:#707173;}
	.st1{fill:#00406F;}
</style>
    <path class="st0" d="M688.7,118.2c-1.1,0-1.9,0.3-2.4,0.8c-0.5,0.6-0.7,1.4-0.7,2.7v11.6c0,0.4,0.1,0.7,0.3,0.9  c0.2,0.2,0.4,0.4,0.7,0.4h0.3c0.3,0,0.5-0.1,0.7-0.4c0.2-0.2,0.3-0.5,0.3-0.9v-11.2c0-1.1,0.5-1.6,1.4-1.6h4c1.2,0,2.2,0.1,2.9,0.2  c0.7,0.1,1.2,0.4,1.6,0.8c0.3,0.4,0.5,1.1,0.6,2c0.1,0.9,0.1,2.1,0.1,3.7v6.2c0,0.4,0.1,0.7,0.3,0.9c0.2,0.2,0.4,0.4,0.7,0.4h0.3  c0.3,0,0.5-0.1,0.7-0.4c0.2-0.2,0.3-0.5,0.3-0.9V126c0-1.6-0.1-3-0.2-4c-0.2-1-0.5-1.8-1-2.4c-0.5-0.6-1.2-0.9-2.2-1.1  c-0.9-0.2-2.2-0.3-3.8-0.3H688.7z M674.7,134.7c1.6,0,2.9-0.1,3.9-0.3c1-0.2,1.8-0.6,2.3-1.2c0.5-0.6,0.9-1.4,1.1-2.5  c0.2-1.1,0.3-2.4,0.3-4.1v-0.2c0-1.7-0.1-3.1-0.3-4.1c-0.2-1-0.6-1.9-1.1-2.5c-0.6-0.6-1.3-1-2.3-1.2c-1-0.2-2.3-0.3-3.8-0.3H674  c-1.6,0-2.9,0.1-3.8,0.3c-1,0.2-1.8,0.6-2.3,1.2c-0.6,0.6-0.9,1.4-1.1,2.5c-0.2,1-0.3,2.4-0.3,4.1v0.2c0,1.7,0.1,3.1,0.3,4.1  c0.2,1.1,0.6,1.9,1.1,2.5c0.5,0.6,1.3,1,2.3,1.2c1,0.2,2.3,0.3,3.9,0.3H674.7z M674.6,120.5c1.2,0,2.2,0.1,2.9,0.2  c0.7,0.1,1.3,0.4,1.6,0.8c0.4,0.4,0.6,1,0.7,1.8c0.1,0.8,0.2,1.8,0.2,3v0.2c0,1.3-0.1,2.3-0.2,3c-0.1,0.8-0.4,1.4-0.7,1.8  c-0.4,0.4-0.9,0.7-1.6,0.8c-0.7,0.1-1.7,0.2-2.9,0.2H674c-1.2,0-2.2-0.1-2.9-0.2c-0.7-0.1-1.3-0.4-1.6-0.8c-0.4-0.4-0.6-1-0.7-1.8  c-0.1-0.8-0.2-1.8-0.2-3v-0.2c0-1.3,0.1-2.3,0.2-3c0.1-0.8,0.4-1.3,0.7-1.8c0.4-0.4,0.9-0.7,1.6-0.8c0.7-0.1,1.7-0.2,2.9-0.2H674.6z   M660.7,113.8c0,0.4,0.1,0.7,0.3,0.9c0.2,0.2,0.4,0.4,0.7,0.4h0.5c0.3,0,0.5-0.1,0.7-0.4c0.2-0.2,0.3-0.5,0.3-0.9v-1  c0-0.4-0.1-0.7-0.3-0.9c-0.2-0.2-0.4-0.4-0.7-0.4h-0.5c-0.3,0-0.5,0.1-0.7,0.4c-0.2,0.2-0.3,0.5-0.3,0.9V113.8z M660.8,133.3  c0,0.4,0.1,0.7,0.3,0.9c0.2,0.2,0.4,0.4,0.7,0.4h0.3c0.3,0,0.5-0.1,0.7-0.4c0.2-0.2,0.3-0.5,0.3-0.9v-13.7c0-0.4-0.1-0.7-0.3-0.9  c-0.2-0.2-0.4-0.4-0.7-0.4h-0.3c-0.3,0-0.5,0.1-0.7,0.4c-0.2,0.2-0.3,0.5-0.3,0.9V133.3z M646.8,120.4c0.5,0,0.7,0.3,0.7,0.8v7.2  c0,1.2,0.1,2.2,0.2,3c0.1,0.8,0.4,1.4,0.7,1.9c0.4,0.5,0.8,0.8,1.4,1c0.6,0.2,1.3,0.3,2.2,0.3h1.6c0.9,0,1.6,0,2.1-0.1  c0.5-0.1,0.9-0.1,1.2-0.3c0.3-0.1,0.4-0.3,0.5-0.4c0.1-0.2,0.1-0.4,0.1-0.6v-0.1c0-0.2-0.1-0.5-0.2-0.6c-0.1-0.2-0.3-0.3-0.5-0.3  h-4.2c-0.6,0-1.1-0.1-1.5-0.2c-0.4-0.1-0.7-0.3-0.9-0.6c-0.2-0.3-0.4-0.7-0.4-1.3c-0.1-0.5-0.1-1.2-0.1-2v-7c0-0.5,0.2-0.8,0.7-0.8  h6.6c0.2,0,0.4-0.1,0.5-0.3c0.1-0.2,0.2-0.4,0.2-0.7v-0.1c0-0.3-0.1-0.6-0.2-0.7c-0.1-0.2-0.3-0.3-0.5-0.3h-6.6  c-0.5,0-0.7-0.3-0.7-0.8v-2.3c0-0.4-0.1-0.7-0.3-0.9c-0.2-0.2-0.4-0.4-0.7-0.4h-0.3c-0.3,0-0.5,0.1-0.7,0.4  c-0.2,0.2-0.3,0.5-0.3,0.9v2.3c0,0.5-0.2,0.8-0.7,0.8h-1.5c-0.2,0-0.4,0.1-0.5,0.3c-0.1,0.2-0.2,0.4-0.2,0.7v0.1  c0,0.3,0.1,0.6,0.2,0.7c0.1,0.2,0.3,0.3,0.5,0.3H646.8z M642.1,120.6c0.2,0,0.4-0.1,0.5-0.3c0.1-0.2,0.2-0.4,0.2-0.6v-0.2  c0-0.2,0-0.4-0.1-0.6c-0.1-0.2-0.2-0.3-0.5-0.4c-0.3-0.1-0.7-0.2-1.2-0.3c-0.5-0.1-1.3-0.1-2.2-0.1h-3.6c-1.6,0-2.9,0.1-3.9,0.3  c-1,0.2-1.8,0.6-2.4,1.2c-0.6,0.6-1,1.4-1.2,2.4c-0.2,1-0.3,2.4-0.3,4v0.5c0,1.6,0.1,3,0.3,4c0.2,1,0.6,1.9,1.2,2.4  c0.6,0.6,1.4,1,2.4,1.2c1,0.2,2.3,0.3,3.9,0.3h3.6c0.9,0,1.6,0,2.2-0.1c0.5-0.1,0.9-0.1,1.2-0.3c0.3-0.1,0.4-0.2,0.5-0.4  c0.1-0.2,0.1-0.4,0.1-0.6v-0.2c0-0.3-0.1-0.5-0.2-0.7c-0.1-0.2-0.3-0.3-0.5-0.3h-6.8c-1.2,0-2.2-0.1-2.9-0.2  c-0.7-0.1-1.3-0.4-1.7-0.8c-0.4-0.4-0.7-1-0.8-1.7c-0.1-0.7-0.2-1.7-0.2-2.9v-0.5c0-1.2,0.1-2.2,0.2-2.9c0.1-0.7,0.4-1.3,0.8-1.7  c0.4-0.4,1-0.7,1.7-0.8c0.8-0.1,1.7-0.2,3-0.2H642.1z M616,132.4c-1.1,0-2-0.1-2.6-0.2c-0.6-0.1-1.1-0.4-1.4-0.8  c-0.3-0.4-0.5-1.1-0.6-2c-0.1-0.9-0.1-2.1-0.1-3.7v-6.2c0-0.4-0.1-0.7-0.3-0.9c-0.2-0.2-0.4-0.4-0.7-0.4H610c-0.3,0-0.5,0.1-0.7,0.4  c-0.2,0.2-0.3,0.5-0.3,0.9v7.2c0,1.7,0.1,3,0.2,4c0.2,1,0.5,1.8,0.9,2.4c0.5,0.6,1.1,0.9,2,1.1c0.9,0.2,2,0.3,3.5,0.3h5.3  c1.1,0,1.9-0.3,2.4-0.8c0.5-0.6,0.7-1.4,0.7-2.7v-11.6c0-0.4-0.1-0.7-0.3-0.9c-0.2-0.2-0.4-0.4-0.7-0.4h-0.3c-0.3,0-0.5,0.1-0.7,0.4  c-0.2,0.2-0.3,0.5-0.3,0.9v11.2c0,1.1-0.5,1.6-1.4,1.6H616z M603.2,117c0,0.5-0.1,0.9-0.2,1c-0.2,0.2-0.5,0.2-1.1,0.2h-5  c-1.4,0-2.6,0.1-3.4,0.3c-0.9,0.2-1.6,0.6-2.1,1.2c-0.5,0.6-0.9,1.4-1.1,2.4c-0.2,1-0.3,2.4-0.3,4.1v0.5c0,1.7,0.1,3,0.3,4.1  c0.2,1,0.6,1.8,1.1,2.4c0.5,0.6,1.2,1,2.1,1.2c0.9,0.2,2.1,0.3,3.5,0.3h2.8c1.1,0,2-0.1,2.7-0.3c0.7-0.2,1.3-0.6,1.8-1.1  c0.5-0.5,0.8-1.2,1-2c0.2-0.8,0.3-1.8,0.3-3.1v-15.4c0-0.4-0.1-0.7-0.3-0.9c-0.2-0.2-0.4-0.4-0.7-0.4h-0.3c-0.3,0-0.5,0.1-0.7,0.4  c-0.2,0.2-0.3,0.5-0.3,0.9V117z M603.2,128.2c0,0.8-0.1,1.5-0.2,2c-0.1,0.5-0.3,0.9-0.6,1.3c-0.3,0.3-0.7,0.5-1.2,0.7  c-0.5,0.1-1.2,0.2-2,0.2h-2c-1.1,0-2-0.1-2.7-0.2c-0.7-0.1-1.2-0.4-1.6-0.8c-0.4-0.4-0.6-1-0.7-1.7c-0.1-0.8-0.2-1.7-0.2-3v-0.5  c0-1.2,0.1-2.2,0.2-3c0.1-0.7,0.4-1.3,0.7-1.7c0.4-0.4,0.9-0.7,1.6-0.8c0.7-0.1,1.6-0.2,2.7-0.2h3.4c0.5,0,0.9,0,1.3,0.1  c0.3,0.1,0.6,0.3,0.8,0.5c0.2,0.2,0.3,0.6,0.4,1c0.1,0.4,0.1,1,0.1,1.7V128.2z M579.4,134.7c1.6,0,2.9-0.1,3.8-0.3  c1-0.2,1.8-0.6,2.3-1.2c0.5-0.6,0.9-1.4,1.1-2.5c0.2-1.1,0.3-2.4,0.3-4.1v-0.2c0-1.7-0.1-3.1-0.3-4.1c-0.2-1-0.6-1.9-1.1-2.5  c-0.6-0.6-1.3-1-2.3-1.2c-1-0.2-2.3-0.3-3.8-0.3h-0.7c-1.6,0-2.9,0.1-3.8,0.3c-1,0.2-1.8,0.6-2.3,1.2c-0.6,0.6-0.9,1.4-1.1,2.5  c-0.2,1-0.3,2.4-0.3,4.1v0.2c0,1.7,0.1,3.1,0.3,4.1c0.2,1.1,0.6,1.9,1.1,2.5c0.6,0.6,1.3,1,2.3,1.2c1,0.2,2.3,0.3,3.8,0.3H579.4z   M579.4,120.5c1.2,0,2.2,0.1,2.9,0.2c0.7,0.1,1.3,0.4,1.6,0.8c0.4,0.4,0.6,1,0.7,1.8c0.1,0.8,0.2,1.8,0.2,3v0.2c0,1.3-0.1,2.3-0.2,3  c-0.1,0.8-0.4,1.4-0.7,1.8c-0.4,0.4-0.9,0.7-1.6,0.8c-0.7,0.1-1.7,0.2-2.9,0.2h-0.6c-1.2,0-2.2-0.1-2.9-0.2  c-0.7-0.1-1.3-0.4-1.6-0.8c-0.4-0.4-0.6-1-0.7-1.8c-0.1-0.8-0.2-1.8-0.2-3v-0.2c0-1.3,0.1-2.3,0.2-3c0.1-0.8,0.4-1.3,0.7-1.8  c0.4-0.4,0.9-0.7,1.6-0.8c0.7-0.1,1.7-0.2,2.9-0.2H579.4z M559.1,118.2c-1.1,0-1.9,0.3-2.3,0.8c-0.4,0.5-0.7,1.4-0.7,2.7v11.6  c0,0.4,0.1,0.7,0.3,0.9c0.2,0.2,0.4,0.4,0.7,0.4h0.3c0.3,0,0.5-0.1,0.7-0.4c0.2-0.2,0.3-0.5,0.3-0.9v-11.2c0-0.5,0.1-0.9,0.3-1.2  c0.2-0.3,0.5-0.4,1-0.4h4.1c0.7,0,1.2,0.1,1.6,0.2c0.4,0.1,0.7,0.3,0.9,0.6c0.2,0.2,0.4,0.6,0.4,0.9c0.1,0.4,0.1,0.8,0.2,1.3  c0,0.4,0.1,0.7,0.3,0.9c0.2,0.2,0.4,0.4,0.7,0.4h0.2c0.3,0,0.5-0.1,0.7-0.4c0.2-0.2,0.3-0.5,0.3-0.9v-0.3c0-0.8-0.1-1.5-0.2-2.1  c-0.1-0.6-0.4-1.2-0.7-1.6c-0.3-0.4-0.8-0.8-1.4-1c-0.6-0.2-1.3-0.3-2.2-0.3H559.1z M550.5,126.7c0,1.2-0.1,2.2-0.2,3  c-0.1,0.8-0.4,1.3-0.7,1.7c-0.4,0.4-0.9,0.7-1.6,0.8c-0.7,0.1-1.6,0.2-2.7,0.2h-3.5c-0.5,0-0.9,0-1.2-0.1c-0.3-0.1-0.6-0.2-0.8-0.4  c-0.2-0.2-0.3-0.5-0.4-0.9c-0.1-0.4-0.1-0.9-0.1-1.6v-5.6c0-0.7,0-1.3,0.1-1.7c0.1-0.4,0.2-0.8,0.4-1c0.2-0.2,0.4-0.4,0.8-0.5  c0.3-0.1,0.8-0.1,1.3-0.1h3.5c1.1,0,2,0.1,2.7,0.2c0.7,0.1,1.2,0.4,1.6,0.8c0.4,0.4,0.6,1,0.7,1.7c0.1,0.8,0.2,1.7,0.2,3V126.7z   M539.4,135.9c0-0.5,0.1-0.9,0.3-1c0.2-0.2,0.6-0.2,1.1-0.2h5c1.4,0,2.6-0.1,3.5-0.3c0.9-0.2,1.6-0.6,2.1-1.2  c0.5-0.6,0.9-1.4,1.1-2.4c0.2-1,0.3-2.4,0.3-4.1v-0.5c0-1.7-0.1-3-0.3-4.1c-0.2-1-0.5-1.8-1.1-2.4c-0.5-0.6-1.2-1-2.1-1.2  c-0.9-0.2-2.1-0.3-3.5-0.3h-5c-1.2,0-2.1,0.4-2.7,1.1c-0.6,0.8-0.9,1.8-0.9,3.2V139c0,0.4,0.1,0.7,0.3,0.9c0.2,0.2,0.4,0.4,0.7,0.4  h0.3c0.3,0,0.5-0.1,0.7-0.3c0.2-0.2,0.3-0.5,0.3-0.9V135.9z M516.1,118.2c-1.1,0-1.9,0.3-2.3,0.8c-0.4,0.5-0.7,1.4-0.7,2.7v11.6  c0,0.4,0.1,0.7,0.3,0.9c0.2,0.2,0.4,0.4,0.7,0.4h0.3c0.3,0,0.5-0.1,0.7-0.4c0.2-0.2,0.3-0.5,0.3-0.9v-11.2c0-0.5,0.1-0.9,0.3-1.2  c0.2-0.3,0.6-0.4,1-0.4h4.1c0.7,0,1.2,0.1,1.6,0.2c0.4,0.1,0.7,0.3,0.9,0.6c0.2,0.2,0.4,0.6,0.4,0.9c0.1,0.4,0.1,0.8,0.2,1.3  c0,0.4,0.1,0.7,0.3,0.9c0.2,0.2,0.4,0.4,0.7,0.4h0.2c0.3,0,0.5-0.1,0.7-0.4c0.2-0.2,0.3-0.5,0.3-0.9v-0.3c0-0.8-0.1-1.5-0.2-2.1  c-0.1-0.6-0.4-1.2-0.7-1.6c-0.3-0.4-0.8-0.8-1.4-1c-0.6-0.2-1.3-0.3-2.2-0.3H516.1z M502.1,134.7c1.6,0,2.9-0.1,3.8-0.3  c1-0.2,1.8-0.6,2.3-1.2c0.5-0.6,0.9-1.4,1.1-2.5c0.2-1.1,0.3-2.4,0.3-4.1v-0.2c0-1.7-0.1-3.1-0.3-4.1c-0.2-1-0.6-1.9-1.1-2.5  c-0.6-0.6-1.3-1-2.3-1.2c-1-0.2-2.3-0.3-3.8-0.3h-0.7c-1.6,0-2.9,0.1-3.8,0.3c-1,0.2-1.8,0.6-2.3,1.2c-0.6,0.6-0.9,1.4-1.1,2.5  c-0.2,1-0.3,2.4-0.3,4.1v0.2c0,1.7,0.1,3.1,0.3,4.1c0.2,1.1,0.6,1.9,1.1,2.5c0.5,0.6,1.3,1,2.3,1.2c1,0.2,2.3,0.3,3.8,0.3H502.1z   M502.1,120.5c1.2,0,2.2,0.1,2.9,0.2c0.7,0.1,1.3,0.4,1.6,0.8c0.4,0.4,0.6,1,0.7,1.8c0.1,0.8,0.2,1.8,0.2,3v0.2c0,1.3-0.1,2.3-0.2,3  c-0.1,0.8-0.4,1.4-0.7,1.8c-0.4,0.4-0.9,0.7-1.6,0.8c-0.7,0.1-1.7,0.2-2.9,0.2h-0.6c-1.2,0-2.2-0.1-2.9-0.2  c-0.7-0.1-1.3-0.4-1.6-0.8c-0.4-0.4-0.6-1-0.7-1.8c-0.1-0.8-0.2-1.8-0.2-3v-0.2c0-1.3,0.1-2.3,0.2-3c0.1-0.8,0.4-1.3,0.7-1.8  c0.4-0.4,0.9-0.7,1.6-0.8c0.7-0.1,1.7-0.2,2.9-0.2H502.1z M484.8,118.3c-0.2,0-0.4,0.1-0.5,0.3c-0.1,0.2-0.2,0.4-0.2,0.7v0.1  c0,0.3,0.1,0.6,0.2,0.7c0.1,0.2,0.3,0.3,0.5,0.3h0.9c0.5,0,0.7,0.3,0.7,0.8v12c0,0.4,0.1,0.7,0.3,0.9c0.2,0.2,0.4,0.4,0.7,0.4h0.2  c0.3,0,0.5-0.1,0.7-0.4c0.2-0.2,0.3-0.5,0.3-0.9v-12c0-0.5,0.2-0.8,0.7-0.8h2.2c0.2,0,0.4-0.1,0.5-0.3c0.1-0.2,0.2-0.4,0.2-0.7v-0.1  c0-0.3-0.1-0.6-0.2-0.7c-0.1-0.2-0.3-0.3-0.5-0.3h-2.3c-0.5,0-0.7-0.3-0.7-0.8v-1.5c0-0.8,0.1-1.4,0.4-1.8c0.3-0.4,0.8-0.6,1.5-0.6  h1.8c0.2,0,0.4-0.1,0.5-0.3c0.1-0.2,0.2-0.4,0.2-0.6v-0.2c0-0.4-0.2-0.7-0.6-0.9c-0.4-0.2-1-0.3-1.6-0.3h-0.2c-1.3,0-2.3,0.4-3,1.2  c-0.7,0.8-1.1,2-1.1,3.4v1.5c0,0.5-0.2,0.8-0.7,0.8H484.8z M464,127c0.2,0,0.3,0,0.5,0.1c0.1,0.1,0.3,0.2,0.5,0.4l7.1,6.6  c0.2,0.2,0.4,0.3,0.5,0.4c0.2,0.1,0.4,0.1,0.6,0.1h0.5c0.2,0,0.4-0.1,0.6-0.3c0.2-0.2,0.2-0.4,0.2-0.7c0-0.4-0.1-0.7-0.4-0.9  l-6.9-6.3c-0.2-0.2-0.3-0.4-0.3-0.5c0-0.2,0.1-0.4,0.3-0.5l6-5.2c0.3-0.2,0.5-0.6,0.5-1c0-0.6-0.3-0.8-0.8-0.8h-0.4  c-0.2,0-0.4,0-0.6,0.1c-0.2,0.1-0.4,0.2-0.6,0.4l-6.3,5.4c-0.2,0.2-0.3,0.3-0.5,0.3c-0.2,0-0.3,0.1-0.5,0.1h-0.6  c-0.3,0-0.5-0.2-0.5-0.6v-11.2c0-0.4-0.1-0.7-0.3-0.9c-0.2-0.2-0.4-0.4-0.7-0.4h-0.3c-0.3,0-0.5,0.1-0.7,0.4  c-0.2,0.2-0.3,0.5-0.3,0.9v20.4c0,0.4,0.1,0.7,0.3,0.9c0.2,0.2,0.4,0.4,0.7,0.4h0.3c0.3,0,0.5-0.1,0.7-0.4c0.2-0.2,0.3-0.5,0.3-0.9  v-5.7c0-0.4,0.2-0.6,0.5-0.6H464z M448.3,118.2c-1.1,0-1.9,0.3-2.3,0.8c-0.4,0.5-0.7,1.4-0.7,2.7v11.6c0,0.4,0.1,0.7,0.3,0.9  c0.2,0.2,0.4,0.4,0.7,0.4h0.3c0.3,0,0.5-0.1,0.7-0.4c0.2-0.2,0.3-0.5,0.3-0.9v-11.2c0-0.5,0.1-0.9,0.3-1.2c0.2-0.3,0.5-0.4,1-0.4  h4.1c0.7,0,1.2,0.1,1.6,0.2c0.4,0.1,0.7,0.3,0.9,0.6c0.2,0.2,0.4,0.6,0.4,0.9c0.1,0.4,0.1,0.8,0.2,1.3c0,0.4,0.1,0.7,0.3,0.9  c0.2,0.2,0.4,0.4,0.7,0.4h0.2c0.3,0,0.5-0.1,0.7-0.4c0.2-0.2,0.3-0.5,0.3-0.9v-0.3c0-0.8-0.1-1.5-0.2-2.1c-0.1-0.6-0.4-1.2-0.7-1.6  c-0.3-0.4-0.8-0.8-1.4-1c-0.6-0.2-1.3-0.3-2.2-0.3H448.3z M434.4,134.7c1.6,0,2.9-0.1,3.9-0.3c1-0.2,1.8-0.6,2.3-1.2  c0.5-0.6,0.9-1.4,1.1-2.5c0.2-1.1,0.3-2.4,0.3-4.1v-0.2c0-1.7-0.1-3.1-0.3-4.1c-0.2-1-0.6-1.9-1.1-2.5c-0.6-0.6-1.3-1-2.3-1.2  c-1-0.2-2.3-0.3-3.8-0.3h-0.7c-1.6,0-2.9,0.1-3.8,0.3c-1,0.2-1.8,0.6-2.3,1.2c-0.6,0.6-0.9,1.4-1.1,2.5c-0.2,1-0.3,2.4-0.3,4.1v0.2  c0,1.7,0.1,3.1,0.3,4.1c0.2,1.1,0.6,1.9,1.1,2.5c0.5,0.6,1.3,1,2.3,1.2c1,0.2,2.3,0.3,3.9,0.3H434.4z M434.3,120.5  c1.2,0,2.2,0.1,2.9,0.2c0.7,0.1,1.3,0.4,1.6,0.8c0.4,0.4,0.6,1,0.7,1.8c0.1,0.8,0.2,1.8,0.2,3v0.2c0,1.3-0.1,2.3-0.2,3  c-0.1,0.8-0.4,1.4-0.7,1.8c-0.4,0.4-0.9,0.7-1.6,0.8c-0.7,0.1-1.7,0.2-2.9,0.2h-0.6c-1.2,0-2.2-0.1-2.9-0.2  c-0.7-0.1-1.3-0.4-1.6-0.8c-0.4-0.4-0.6-1-0.7-1.8c-0.1-0.8-0.2-1.8-0.2-3v-0.2c0-1.3,0.1-2.3,0.2-3c0.1-0.8,0.4-1.3,0.7-1.8  c0.4-0.4,0.9-0.7,1.6-0.8c0.7-0.1,1.7-0.2,2.9-0.2H434.3z M411.8,118.3c-0.5,0-0.9,0.3-1.1,1l-3.8,12.2c-0.1,0.3-0.2,0.4-0.4,0.4  c-0.1,0-0.3-0.1-0.4-0.4l-4-12.2c-0.1-0.4-0.3-0.6-0.4-0.8c-0.2-0.2-0.4-0.2-0.7-0.2h-0.3c-0.3,0-0.5,0.1-0.6,0.3  c-0.1,0.2-0.2,0.4-0.2,0.7c0,0.2,0.1,0.5,0.2,0.9l4.7,13.5c0.1,0.4,0.3,0.6,0.5,0.7c0.2,0.1,0.4,0.2,0.7,0.2h1  c0.3,0,0.5-0.1,0.7-0.2c0.2-0.1,0.3-0.4,0.5-0.7l3.6-11.5c0.1-0.3,0.2-0.5,0.3-0.5c0.1,0,0.2,0.2,0.3,0.5l3.7,11.5  c0.1,0.4,0.3,0.6,0.5,0.7c0.2,0.1,0.4,0.2,0.7,0.2h1c0.3,0,0.5-0.1,0.7-0.2c0.2-0.1,0.3-0.4,0.5-0.7l4.7-13.5  c0.1-0.4,0.2-0.6,0.2-0.8c0-0.3-0.1-0.5-0.2-0.7c-0.1-0.2-0.4-0.3-0.6-0.3h-0.3c-0.5,0-0.9,0.3-1.1,1l-3.9,12.2  c-0.1,0.3-0.2,0.4-0.4,0.4c-0.1,0-0.3-0.1-0.4-0.4l-3.9-12.2c-0.1-0.4-0.3-0.6-0.4-0.8c-0.2-0.2-0.4-0.2-0.7-0.2H411.8z   M387.6,120.4c0.5,0,0.7,0.3,0.7,0.8v7.2c0,1.2,0.1,2.2,0.2,3c0.1,0.8,0.4,1.4,0.7,1.9c0.4,0.5,0.8,0.8,1.4,1  c0.6,0.2,1.3,0.3,2.2,0.3h1.6c0.9,0,1.6,0,2.1-0.1c0.5-0.1,0.9-0.1,1.2-0.3c0.3-0.1,0.4-0.3,0.5-0.4c0.1-0.2,0.1-0.4,0.1-0.6v-0.1  c0-0.2-0.1-0.5-0.2-0.6c-0.1-0.2-0.3-0.3-0.5-0.3h-4.2c-0.6,0-1.1-0.1-1.5-0.2c-0.4-0.1-0.7-0.3-0.9-0.6c-0.2-0.3-0.4-0.7-0.4-1.3  c-0.1-0.5-0.1-1.2-0.1-2v-7c0-0.5,0.2-0.8,0.7-0.8h6.6c0.2,0,0.4-0.1,0.5-0.3c0.1-0.2,0.2-0.4,0.2-0.7v-0.1c0-0.3-0.1-0.6-0.2-0.7  c-0.1-0.2-0.3-0.3-0.5-0.3h-6.6c-0.5,0-0.7-0.3-0.7-0.8v-2.3c0-0.4-0.1-0.7-0.3-0.9c-0.2-0.2-0.4-0.4-0.7-0.4h-0.3  c-0.3,0-0.5,0.1-0.7,0.4c-0.2,0.2-0.3,0.5-0.3,0.9v2.3c0,0.5-0.2,0.8-0.7,0.8h-1.5c-0.2,0-0.4,0.1-0.5,0.3c-0.1,0.2-0.2,0.4-0.2,0.7  v0.1c0,0.3,0.1,0.6,0.2,0.7c0.1,0.2,0.3,0.3,0.5,0.3H387.6z M376.3,120.4c1.1,0,2,0.1,2.7,0.2c0.7,0.2,1.2,0.4,1.5,0.7  c0.4,0.3,0.6,0.7,0.7,1.2c0.1,0.5,0.2,1,0.2,1.7c0,0.3-0.1,0.5-0.2,0.7c-0.1,0.1-0.3,0.2-0.7,0.2h-9c-0.3,0-0.6-0.1-0.7-0.2  c-0.1-0.1-0.2-0.4-0.2-0.7c0-0.7,0.1-1.2,0.2-1.7c0.1-0.5,0.4-0.9,0.8-1.2c0.4-0.3,0.9-0.5,1.6-0.7c0.7-0.1,1.6-0.2,2.7-0.2H376.3z   M375.7,118.2c-1.5,0-2.7,0.1-3.6,0.4c-0.9,0.2-1.7,0.7-2.2,1.3c-0.5,0.6-0.9,1.5-1.1,2.5c-0.2,1.1-0.3,2.4-0.3,4.1  c0,1.7,0.1,3.1,0.3,4.1c0.2,1.1,0.6,1.9,1.1,2.5c0.6,0.6,1.3,1,2.3,1.2c1,0.2,2.3,0.3,3.8,0.3h3.3c0.9,0,1.6,0,2.2-0.1  c0.5-0.1,0.9-0.1,1.2-0.2c0.3-0.1,0.4-0.2,0.5-0.4c0.1-0.2,0.1-0.3,0.1-0.5v-0.2c0-0.3-0.1-0.5-0.2-0.6c-0.1-0.2-0.3-0.2-0.5-0.2  H376c-1.2,0-2.2-0.1-2.9-0.2c-0.7-0.1-1.3-0.4-1.6-0.7c-0.4-0.3-0.6-0.8-0.8-1.3c-0.1-0.5-0.2-1.2-0.2-2c0-0.3,0.1-0.6,0.2-0.7  c0.1-0.2,0.4-0.3,0.8-0.3h10c0.7,0,1.2-0.2,1.5-0.5c0.3-0.4,0.5-0.9,0.5-1.6c0-1.2-0.1-2.3-0.3-3.1c-0.2-0.9-0.6-1.6-1.1-2.1  c-0.5-0.5-1.3-0.9-2.2-1.2c-0.9-0.2-2.1-0.4-3.6-0.4H375.7z M353.1,118.2c-1.1,0-1.9,0.3-2.4,0.8c-0.5,0.6-0.7,1.4-0.7,2.7v11.6  c0,0.4,0.1,0.7,0.3,0.9c0.2,0.2,0.4,0.4,0.7,0.4h0.3c0.3,0,0.5-0.1,0.7-0.4c0.2-0.2,0.3-0.5,0.3-0.9v-11.2c0-1.1,0.5-1.6,1.4-1.6h4  c1.2,0,2.2,0.1,2.9,0.2c0.7,0.1,1.2,0.4,1.6,0.8c0.3,0.4,0.5,1.1,0.6,2c0.1,0.9,0.1,2.1,0.1,3.7v6.2c0,0.4,0.1,0.7,0.3,0.9  c0.2,0.2,0.4,0.4,0.7,0.4h0.3c0.3,0,0.5-0.1,0.7-0.4c0.2-0.2,0.3-0.5,0.3-0.9V126c0-1.6-0.1-3-0.2-4c-0.2-1-0.5-1.8-1-2.4  c-0.5-0.6-1.2-0.9-2.2-1.1c-0.9-0.2-2.2-0.3-3.8-0.3H353.1z M330.9,120.4c1.1,0,2,0.1,2.7,0.2c0.7,0.2,1.2,0.4,1.5,0.7  c0.4,0.3,0.6,0.7,0.7,1.2c0.1,0.5,0.2,1,0.2,1.7c0,0.3-0.1,0.5-0.2,0.7c-0.1,0.1-0.3,0.2-0.7,0.2h-9c-0.3,0-0.6-0.1-0.7-0.2  c-0.1-0.1-0.2-0.4-0.2-0.7c0-0.7,0.1-1.2,0.2-1.7c0.1-0.5,0.4-0.9,0.8-1.2c0.4-0.3,0.9-0.5,1.6-0.7c0.7-0.1,1.6-0.2,2.7-0.2H330.9z   M330.3,118.2c-1.5,0-2.7,0.1-3.6,0.4c-0.9,0.2-1.7,0.7-2.2,1.3c-0.5,0.6-0.9,1.5-1.1,2.5c-0.2,1.1-0.3,2.4-0.3,4.1  c0,1.7,0.1,3.1,0.3,4.1c0.2,1.1,0.6,1.9,1.1,2.5c0.6,0.6,1.3,1,2.3,1.2c1,0.2,2.3,0.3,3.8,0.3h3.3c0.9,0,1.6,0,2.2-0.1  c0.5-0.1,0.9-0.1,1.2-0.2c0.3-0.1,0.4-0.2,0.5-0.4c0.1-0.2,0.1-0.3,0.1-0.5v-0.2c0-0.3-0.1-0.5-0.2-0.6c-0.1-0.2-0.3-0.2-0.5-0.2  h-6.5c-1.2,0-2.2-0.1-2.9-0.2c-0.7-0.1-1.3-0.4-1.6-0.7c-0.4-0.3-0.6-0.8-0.8-1.3c-0.1-0.5-0.2-1.2-0.2-2c0-0.3,0.1-0.6,0.2-0.7  c0.1-0.2,0.4-0.3,0.8-0.3h10c0.7,0,1.2-0.2,1.5-0.5c0.3-0.4,0.5-0.9,0.5-1.6c0-1.2-0.1-2.3-0.3-3.1c-0.2-0.9-0.6-1.6-1.1-2.1  c-0.5-0.5-1.3-0.9-2.2-1.2c-0.9-0.2-2.1-0.4-3.6-0.4H330.3z M319.5,120.6c0.2,0,0.4-0.1,0.5-0.3c0.1-0.2,0.2-0.4,0.2-0.6v-0.2  c0-0.2,0-0.4-0.1-0.6c-0.1-0.2-0.2-0.3-0.5-0.4c-0.3-0.1-0.7-0.2-1.2-0.3c-0.5-0.1-1.3-0.1-2.2-0.1h-3.6c-1.6,0-2.9,0.1-3.9,0.3  c-1,0.2-1.8,0.6-2.4,1.2c-0.6,0.6-1,1.4-1.2,2.4c-0.2,1-0.3,2.4-0.3,4v0.5c0,1.6,0.1,3,0.3,4c0.2,1,0.6,1.9,1.2,2.4  c0.6,0.6,1.4,1,2.4,1.2c1,0.2,2.3,0.3,3.9,0.3h3.6c0.9,0,1.6,0,2.2-0.1c0.5-0.1,0.9-0.1,1.2-0.3c0.3-0.1,0.4-0.2,0.5-0.4  c0.1-0.2,0.1-0.4,0.1-0.6v-0.2c0-0.3-0.1-0.5-0.2-0.7c-0.1-0.2-0.3-0.3-0.5-0.3h-6.7c-1.2,0-2.2-0.1-2.9-0.2  c-0.7-0.1-1.3-0.4-1.7-0.8c-0.4-0.4-0.7-1-0.8-1.7c-0.1-0.7-0.2-1.7-0.2-2.9v-0.5c0-1.2,0.1-2.2,0.2-2.9c0.1-0.7,0.4-1.3,0.8-1.7  c0.4-0.4,1-0.7,1.7-0.8c0.8-0.1,1.7-0.2,3-0.2H319.5z M289.6,118.2c-1.1,0-1.9,0.3-2.4,0.8c-0.5,0.6-0.7,1.4-0.7,2.7v11.6  c0,0.4,0.1,0.7,0.3,0.9c0.2,0.2,0.4,0.4,0.7,0.4h0.3c0.3,0,0.5-0.1,0.7-0.4c0.2-0.2,0.3-0.5,0.3-0.9v-11.2c0-1.1,0.5-1.6,1.4-1.6h4  c1.2,0,2.2,0.1,2.9,0.2c0.7,0.1,1.2,0.4,1.6,0.8c0.3,0.4,0.6,1.1,0.6,2c0.1,0.9,0.1,2.1,0.1,3.7v6.2c0,0.4,0.1,0.7,0.3,0.9  c0.2,0.2,0.4,0.4,0.7,0.4h0.3c0.3,0,0.5-0.1,0.7-0.4c0.2-0.2,0.3-0.5,0.3-0.9V126c0-1.6-0.1-3-0.2-4c-0.2-1-0.5-1.8-1-2.4  c-0.5-0.6-1.2-0.9-2.2-1.1c-0.9-0.2-2.2-0.3-3.8-0.3H289.6z M275.9,120.4c1.1,0,2,0.1,2.7,0.2c0.7,0.2,1.2,0.4,1.5,0.7  c0.4,0.3,0.6,0.7,0.7,1.2c0.1,0.5,0.2,1,0.2,1.7c0,0.3-0.1,0.5-0.2,0.7c-0.1,0.1-0.3,0.2-0.7,0.2h-9c-0.3,0-0.6-0.1-0.7-0.2  c-0.1-0.1-0.2-0.4-0.2-0.7c0-0.7,0.1-1.2,0.2-1.7c0.1-0.5,0.4-0.9,0.8-1.2c0.4-0.3,0.9-0.5,1.6-0.7c0.7-0.1,1.6-0.2,2.7-0.2H275.9z   M275.3,118.2c-1.5,0-2.7,0.1-3.6,0.4c-0.9,0.2-1.7,0.7-2.2,1.3c-0.5,0.6-0.9,1.5-1.1,2.5c-0.2,1.1-0.3,2.4-0.3,4.1  c0,1.7,0.1,3.1,0.3,4.1c0.2,1.1,0.6,1.9,1.1,2.5c0.6,0.6,1.3,1,2.3,1.2c1,0.2,2.3,0.3,3.8,0.3h3.3c0.9,0,1.6,0,2.2-0.1  c0.5-0.1,0.9-0.1,1.2-0.2c0.3-0.1,0.4-0.2,0.5-0.4c0.1-0.2,0.1-0.3,0.1-0.5v-0.2c0-0.3-0.1-0.5-0.2-0.6c-0.1-0.2-0.3-0.2-0.5-0.2  h-6.5c-1.2,0-2.2-0.1-2.9-0.2c-0.7-0.1-1.3-0.4-1.6-0.7c-0.4-0.3-0.6-0.8-0.8-1.3c-0.1-0.5-0.2-1.2-0.2-2c0-0.3,0.1-0.6,0.2-0.7  c0.1-0.2,0.4-0.3,0.8-0.3h10c0.7,0,1.2-0.2,1.5-0.5c0.3-0.4,0.5-0.9,0.5-1.6c0-1.2-0.1-2.3-0.3-3.1c-0.2-0.9-0.6-1.6-1.1-2.1  c-0.5-0.5-1.3-0.9-2.2-1.2c-0.9-0.2-2.1-0.4-3.6-0.4H275.3z M254.6,120.4c0.5,0,0.7,0.3,0.7,0.8v7.2c0,1.2,0.1,2.2,0.2,3  c0.1,0.8,0.4,1.4,0.7,1.9c0.4,0.5,0.8,0.8,1.4,1c0.6,0.2,1.3,0.3,2.2,0.3h1.6c0.9,0,1.6,0,2.1-0.1c0.5-0.1,0.9-0.1,1.2-0.3  c0.3-0.1,0.4-0.3,0.5-0.4c0.1-0.2,0.1-0.4,0.1-0.6v-0.1c0-0.2-0.1-0.5-0.2-0.6c-0.1-0.2-0.3-0.3-0.5-0.3h-4.2  c-0.6,0-1.1-0.1-1.5-0.2c-0.4-0.1-0.7-0.3-0.9-0.6c-0.2-0.3-0.4-0.7-0.4-1.3c-0.1-0.5-0.1-1.2-0.1-2v-7c0-0.5,0.2-0.8,0.7-0.8h6.6  c0.2,0,0.4-0.1,0.5-0.3c0.1-0.2,0.2-0.4,0.2-0.7v-0.1c0-0.3-0.1-0.6-0.2-0.7c-0.1-0.2-0.3-0.3-0.5-0.3h-6.6c-0.5,0-0.7-0.3-0.7-0.8  v-2.3c0-0.4-0.1-0.7-0.3-0.9c-0.2-0.2-0.4-0.4-0.7-0.4h-0.3c-0.3,0-0.5,0.1-0.7,0.4c-0.2,0.2-0.3,0.5-0.3,0.9v2.3  c0,0.5-0.2,0.8-0.7,0.8h-1.5c-0.2,0-0.4,0.1-0.5,0.3c-0.1,0.2-0.2,0.4-0.2,0.7v0.1c0,0.3,0.1,0.6,0.2,0.7c0.1,0.2,0.3,0.3,0.5,0.3  H254.6z M243.3,120.4c1.1,0,2,0.1,2.7,0.2c0.7,0.2,1.2,0.4,1.5,0.7c0.4,0.3,0.6,0.7,0.7,1.2c0.1,0.5,0.2,1,0.2,1.7  c0,0.3-0.1,0.5-0.2,0.7c-0.1,0.1-0.3,0.2-0.7,0.2h-9c-0.3,0-0.6-0.1-0.7-0.2c-0.1-0.1-0.2-0.4-0.2-0.7c0-0.7,0.1-1.2,0.2-1.7  c0.1-0.5,0.4-0.9,0.8-1.2c0.4-0.3,0.9-0.5,1.6-0.7c0.7-0.1,1.6-0.2,2.7-0.2H243.3z M242.7,118.2c-1.5,0-2.7,0.1-3.6,0.4  c-0.9,0.2-1.7,0.7-2.2,1.3c-0.5,0.6-0.9,1.5-1.1,2.5c-0.2,1.1-0.3,2.4-0.3,4.1c0,1.7,0.1,3.1,0.3,4.1c0.2,1.1,0.6,1.9,1.1,2.5  c0.6,0.6,1.3,1,2.3,1.2c1,0.2,2.3,0.3,3.8,0.3h3.3c0.9,0,1.6,0,2.2-0.1c0.5-0.1,0.9-0.1,1.2-0.2c0.3-0.1,0.4-0.2,0.5-0.4  c0.1-0.2,0.1-0.3,0.1-0.5v-0.2c0-0.3-0.1-0.5-0.2-0.6c-0.1-0.2-0.3-0.2-0.5-0.2H243c-1.2,0-2.2-0.1-2.9-0.2  c-0.7-0.1-1.3-0.4-1.6-0.7c-0.4-0.3-0.6-0.8-0.8-1.3c-0.1-0.5-0.2-1.2-0.2-2c0-0.3,0.1-0.6,0.2-0.7c0.1-0.2,0.4-0.3,0.8-0.3h10  c0.7,0,1.2-0.2,1.5-0.5c0.3-0.4,0.5-0.9,0.5-1.6c0-1.2-0.1-2.3-0.3-3.1c-0.2-0.9-0.6-1.6-1.1-2.1c-0.5-0.5-1.3-0.9-2.2-1.2  c-0.9-0.2-2.1-0.4-3.6-0.4H242.7z M230.4,126.7c0,1.2-0.1,2.2-0.2,3c-0.1,0.8-0.4,1.3-0.7,1.7c-0.4,0.4-0.9,0.7-1.6,0.8  c-0.7,0.1-1.6,0.2-2.7,0.2h-3.5c-0.5,0-0.9,0-1.2-0.1c-0.3-0.1-0.6-0.2-0.8-0.4c-0.2-0.2-0.3-0.5-0.4-0.9c-0.1-0.4-0.1-0.9-0.1-1.6  v-5.6c0-0.7,0-1.3,0.1-1.7c0.1-0.4,0.2-0.8,0.4-1c0.2-0.2,0.4-0.4,0.8-0.5c0.3-0.1,0.8-0.1,1.3-0.1h3.5c1.1,0,2,0.1,2.7,0.2  c0.7,0.1,1.2,0.4,1.6,0.8c0.4,0.4,0.6,1,0.7,1.7c0.1,0.8,0.2,1.7,0.2,3V126.7z M219.2,135.9c0-0.5,0.1-0.9,0.3-1  c0.2-0.2,0.6-0.2,1.1-0.2h5c1.4,0,2.6-0.1,3.5-0.3c0.9-0.2,1.6-0.6,2.1-1.2c0.5-0.6,0.9-1.4,1.1-2.4c0.2-1,0.3-2.4,0.3-4.1v-0.5  c0-1.7-0.1-3-0.3-4.1c-0.2-1-0.6-1.8-1.1-2.4c-0.5-0.6-1.2-1-2.1-1.2c-0.9-0.2-2.1-0.3-3.5-0.3h-5c-1.2,0-2.1,0.4-2.7,1.1  c-0.6,0.8-0.9,1.8-0.9,3.2V139c0,0.4,0.1,0.7,0.3,0.9c0.2,0.2,0.4,0.4,0.7,0.4h0.3c0.3,0,0.5-0.1,0.7-0.3c0.2-0.2,0.3-0.5,0.3-0.9  V135.9z M188.1,133.3c0,0.4,0.1,0.7,0.3,0.9c0.2,0.2,0.4,0.4,0.7,0.4h0.3c0.3,0,0.5-0.1,0.7-0.4c0.2-0.2,0.3-0.5,0.3-0.9v-11.2  c0-1.1,0.5-1.6,1.4-1.6h6.6c0.4,0,0.7,0.1,0.9,0.4c0.2,0.3,0.3,0.7,0.3,1.2v11.1c0,0.4,0.1,0.7,0.3,0.9c0.2,0.2,0.4,0.4,0.7,0.4h0.3  c0.3,0,0.5-0.1,0.7-0.4c0.2-0.2,0.3-0.5,0.3-0.9v-11.2c0-0.5,0.1-0.9,0.3-1.2c0.2-0.3,0.5-0.4,0.9-0.4h2.8c1.2,0,2.2,0.1,2.9,0.2  c0.7,0.1,1.2,0.4,1.6,0.8c0.3,0.4,0.5,1.1,0.6,2c0.1,0.9,0.1,2.1,0.1,3.7v6.2c0,0.4,0.1,0.7,0.3,0.9c0.2,0.2,0.4,0.4,0.7,0.4h0.3  c0.3,0,0.5-0.1,0.7-0.4c0.2-0.2,0.3-0.5,0.3-0.9V126c0-1.6-0.1-3-0.2-4c-0.2-1-0.5-1.8-1-2.4c-0.5-0.6-1.2-0.9-2.2-1.1  c-0.9-0.2-2.2-0.3-3.8-0.3h-14.8c-1.1,0-1.9,0.3-2.4,0.8c-0.5,0.6-0.7,1.4-0.7,2.7V133.3z M177.2,134.7c1.6,0,2.9-0.1,3.9-0.3  c1-0.2,1.8-0.6,2.3-1.2c0.5-0.6,0.9-1.4,1.1-2.5c0.2-1.1,0.3-2.4,0.3-4.1v-0.2c0-1.7-0.1-3.1-0.3-4.1c-0.2-1-0.6-1.9-1.1-2.5  c-0.6-0.6-1.3-1-2.3-1.2c-1-0.2-2.3-0.3-3.8-0.3h-0.7c-1.6,0-2.9,0.1-3.8,0.3c-1,0.2-1.8,0.6-2.3,1.2c-0.6,0.6-0.9,1.4-1.1,2.5  c-0.2,1-0.3,2.4-0.3,4.1v0.2c0,1.7,0.1,3.1,0.3,4.1c0.2,1.1,0.6,1.9,1.1,2.5c0.6,0.6,1.3,1,2.3,1.2c1,0.2,2.3,0.3,3.9,0.3H177.2z   M177.1,120.5c1.2,0,2.2,0.1,2.9,0.2c0.7,0.1,1.3,0.4,1.6,0.8c0.4,0.4,0.6,1,0.7,1.8c0.1,0.8,0.2,1.8,0.2,3v0.2c0,1.3-0.1,2.3-0.2,3  c-0.1,0.8-0.4,1.4-0.7,1.8c-0.4,0.4-0.9,0.7-1.6,0.8c-0.7,0.1-1.7,0.2-2.9,0.2h-0.6c-1.2,0-2.2-0.1-2.9-0.2  c-0.7-0.1-1.3-0.4-1.6-0.8c-0.4-0.4-0.6-1-0.7-1.8c-0.1-0.8-0.2-1.8-0.2-3v-0.2c0-1.3,0.1-2.3,0.2-3c0.1-0.8,0.4-1.3,0.7-1.8  c0.4-0.4,0.9-0.7,1.6-0.8c0.7-0.1,1.7-0.2,2.9-0.2H177.1z M165.4,120.6c0.2,0,0.4-0.1,0.5-0.3c0.1-0.2,0.2-0.4,0.2-0.6v-0.2  c0-0.2,0-0.4-0.1-0.6c-0.1-0.2-0.2-0.3-0.5-0.4c-0.3-0.1-0.7-0.2-1.2-0.3c-0.5-0.1-1.3-0.1-2.2-0.1h-3.6c-1.6,0-2.9,0.1-3.9,0.3  c-1,0.2-1.8,0.6-2.4,1.2c-0.6,0.6-1,1.4-1.2,2.4c-0.2,1-0.3,2.4-0.3,4v0.5c0,1.6,0.1,3,0.3,4c0.2,1,0.6,1.9,1.2,2.4  c0.6,0.6,1.4,1,2.4,1.2c1,0.2,2.3,0.3,3.9,0.3h3.6c0.9,0,1.6,0,2.2-0.1c0.5-0.1,0.9-0.1,1.2-0.3c0.3-0.1,0.4-0.2,0.5-0.4  c0.1-0.2,0.1-0.4,0.1-0.6v-0.2c0-0.3-0.1-0.5-0.2-0.7c-0.1-0.2-0.3-0.3-0.5-0.3h-6.8c-1.2,0-2.2-0.1-2.9-0.2  c-0.7-0.1-1.3-0.4-1.7-0.8c-0.4-0.4-0.7-1-0.8-1.7c-0.1-0.7-0.2-1.7-0.2-2.9v-0.5c0-1.2,0.1-2.2,0.2-2.9c0.1-0.7,0.4-1.3,0.8-1.7  c0.4-0.4,1-0.7,1.7-0.8c0.8-0.1,1.7-0.2,3-0.2H165.4z"/>
    <path class="st1" d="M692.1,72.5c0,1.1-0.1,2-0.2,2.7c-0.1,0.6-0.4,1.1-1,1.5c-0.5,0.3-1.3,0.6-2.3,0.7c-1,0.1-2.4,0.2-4.2,0.2H680  c-1.9,0-3.4-0.1-4.5-0.2c-1.1-0.1-2-0.4-2.7-0.8c-0.6-0.4-1.1-0.9-1.3-1.6c-0.2-0.7-0.3-1.6-0.3-2.7v-0.8c0-1,0.1-1.8,0.3-2.5  c0.2-0.6,0.6-1.2,1.2-1.5c0.6-0.4,1.5-0.6,2.6-0.8c1.1-0.1,2.6-0.2,4.4-0.2h5c1.7,0,3.1,0,4,0.1c1,0.1,1.7,0.3,2.2,0.6  c0.5,0.3,0.8,0.8,0.9,1.4c0.1,0.6,0.2,1.4,0.2,2.4V72.5z M700.5,63c0-4-0.2-7.3-0.6-9.8c-0.4-2.5-1.2-4.4-2.5-5.8  c-1.2-1.4-3-2.3-5.2-2.7c-2.3-0.4-5.2-0.7-8.9-0.7h-4.8c-3,0-5.4,0.1-7.2,0.2c-1.8,0.1-3.3,0.3-4.3,0.7c-1,0.3-1.7,0.8-2,1.3  c-0.3,0.6-0.5,1.3-0.5,2.2v0.5c0,1.1,0.3,1.9,0.8,2.4c0.5,0.5,1.2,0.8,2.1,0.8h15.2c2,0,3.7,0.1,4.9,0.2c1.2,0.1,2.2,0.4,2.8,0.8  c0.7,0.4,1.1,1,1.3,1.7c0.2,0.7,0.3,1.7,0.3,2.9c0,0.8-0.2,1.4-0.6,1.7c-0.4,0.3-1.1,0.4-2.1,0.4h-12.3c-2.7,0-5,0.2-6.8,0.5  c-1.8,0.4-3.3,1-4.4,1.8c-1.1,0.8-1.9,2-2.3,3.5c-0.4,1.5-0.7,3.3-0.7,5.5v2.2c0,2.3,0.2,4.2,0.5,5.7c0.4,1.5,1,2.7,2.1,3.6  c1,0.9,2.4,1.5,4.2,1.9c1.8,0.4,4.1,0.5,6.9,0.5h16.2c2.9,0,5-0.8,6.2-2.4c1.2-1.6,1.7-3.7,1.7-6.3V63z M655.1,63.3  c0-4.2-0.2-7.5-0.7-10c-0.4-2.5-1.3-4.5-2.7-5.9c-1.3-1.4-3.2-2.3-5.7-2.7c-2.5-0.4-5.7-0.7-9.8-0.7h-12.6c-3,0-5.1,0.8-6.2,2.4  c-1.1,1.6-1.7,3.7-1.7,6.3v27.9c0,1.3,0.2,2.3,0.7,3c0.5,0.7,1.2,1.1,2.2,1.1h2.9c1,0,1.7-0.4,2.2-1.1c0.5-0.7,0.7-1.7,0.7-3V56.5  c0-2.8,1.2-4.2,3.6-4.2h7.3c2.5,0,4.5,0.1,5.9,0.4c1.5,0.3,2.6,0.9,3.3,1.8c0.8,1,1.2,2.4,1.5,4.2c0.2,1.9,0.3,4.4,0.3,7.7v14.2  c0,1.3,0.2,2.3,0.7,3c0.5,0.7,1.2,1.1,2.2,1.1h3c1,0,1.7-0.4,2.1-1.1c0.5-0.7,0.7-1.7,0.7-3V63.3z M599.5,59.7  c-0.3,0.4-0.9,0.6-1.9,0.6h-17.5c-1,0-1.6-0.2-1.9-0.5c-0.3-0.3-0.4-0.9-0.4-1.6c0-1.2,0.1-2.2,0.4-3.1c0.3-0.9,0.8-1.6,1.6-2.1  c0.8-0.5,1.8-0.9,3.2-1.2c1.3-0.3,3.1-0.4,5.2-0.4h0.8c2.3,0,4.2,0.1,5.6,0.4c1.4,0.3,2.5,0.7,3.3,1.2c0.8,0.6,1.3,1.3,1.5,2.1  c0.3,0.8,0.4,1.8,0.4,2.8C599.9,58.7,599.8,59.3,599.5,59.7 M607.3,52c-0.6-2.1-1.6-3.8-3-5c-1.4-1.2-3.3-2-5.8-2.4  c-2.4-0.4-5.4-0.6-9-0.6h-1.9c-3.4,0-6.3,0.3-8.6,0.8c-2.3,0.5-4.2,1.5-5.7,3c-1.4,1.5-2.5,3.5-3.1,6.1c-0.6,2.6-0.9,5.9-0.9,10v0.8  c0,4.3,0.3,7.8,0.9,10.4c0.6,2.6,1.6,4.7,3,6.2c1.5,1.5,3.4,2.4,5.9,2.9c2.5,0.5,5.7,0.8,9.6,0.8h5.4c3,0,5.4-0.1,7.2-0.2  c1.8-0.1,3.1-0.3,4-0.7c0.9-0.3,1.5-0.8,1.8-1.3c0.3-0.5,0.4-1.2,0.4-2.1v-1c0-1.1-0.3-1.9-0.8-2.4c-0.5-0.5-1.2-0.8-2.1-0.8h-15.7  c-2.5,0-4.5-0.1-6-0.3c-1.5-0.2-2.6-0.6-3.4-1.2c-0.8-0.6-1.3-1.3-1.5-2.1c-0.2-0.9-0.3-2-0.3-3.3c0-0.8,0.2-1.5,0.6-1.9  c0.4-0.4,1.1-0.6,2.2-0.6h22.2c1.9,0,3.2-0.5,4.1-1.6c0.9-1.1,1.3-2.8,1.3-5.1C608.2,56.9,607.9,54.1,607.3,52 M564.6,56.3  c0-4.4-1-7.6-2.9-9.5c-1.9-1.9-5-2.8-9.1-2.8h-13.5c-1.5,0-2.8,0.2-3.8,0.6c-1,0.4-1.8,1-2.4,1.7c-0.6,0.8-1,1.7-1.2,2.7  c-0.2,1.1-0.3,2.3-0.3,3.6v27.9c0,1.3,0.2,2.3,0.7,3c0.5,0.7,1.2,1.1,2.2,1.1h2.9c1,0,1.7-0.4,2.2-1.1c0.5-0.7,0.7-1.7,0.7-3V56.4  c0-2.8,1.2-4.2,3.6-4.2h6.3c1.3,0,2.4,0.1,3.3,0.3c0.8,0.2,1.5,0.5,1.9,1c0.5,0.5,0.8,1.1,1,1.8c0.2,0.7,0.3,1.5,0.4,2.5  c0.1,2.3,1.1,3.4,3,3.4h2.3c1,0,1.7-0.4,2.1-1.1c0.5-0.8,0.7-1.7,0.7-2.9V56.3z M506,64.3h-18.7c-0.9,0-1.3-0.4-1.3-1.3  c0-0.4,0.1-0.9,0.4-1.5l9.5-23.4c0.3-0.7,0.6-1.1,1-1.1c0.3,0,0.7,0.4,1,1.2l9.2,23.3c0.2,0.6,0.3,1,0.3,1.4  C507.4,63.8,506.9,64.3,506,64.3 M524.3,78.7l-20.1-48.4c-0.5-1.1-1-1.9-1.5-2.3c-0.5-0.4-1.3-0.6-2.2-0.6h-7.1  c-0.9,0-1.7,0.2-2.2,0.7c-0.5,0.5-1,1.2-1.5,2.4l-20.4,48.4c-0.4,1.1-0.6,2-0.6,2.8c0,2.1,1,3.1,2.9,3.1h3.2c1,0,1.7-0.3,2.1-0.8  c0.5-0.5,1-1.5,1.6-2.8l2.5-6c0.3-0.7,0.7-1.2,1-1.5c0.3-0.3,0.8-0.4,1.5-0.4h26.4c0.7,0,1.2,0.1,1.5,0.4c0.3,0.3,0.7,0.8,1,1.6  l2.5,6c0.5,1.3,1,2.2,1.5,2.7c0.5,0.5,1.2,0.8,2.2,0.8h3.4c0.8,0,1.5-0.3,2.1-0.8c0.6-0.6,0.8-1.3,0.8-2.3S524.7,79.7,524.3,78.7"/>
    <path class="st0" d="M470.9,45c-0.5-0.5-1.2-0.8-2-0.8h-2.7c-1,0-1.7,0.3-2.1,0.8c-0.5,0.5-0.9,1.4-1.3,2.5l-9.2,25.9  c-0.3,1-0.7,1.4-1.1,1.4c-0.2,0-0.4-0.1-0.5-0.3c-0.1-0.2-0.3-0.6-0.5-1.2L442,47.4c-0.4-1.1-0.8-1.9-1.3-2.4  c-0.5-0.5-1.1-0.8-2-0.8h-3.1c-0.8,0-1.5,0.3-2,0.8c-0.5,0.5-0.8,1.2-0.8,2.1c0,0.4,0.1,0.8,0.2,1.2c0.1,0.4,0.2,0.8,0.3,1.1  l11.9,31.1c0.4,1.1,0.9,1.9,1.4,2.3c0.5,0.4,1,0.6,1.7,0.6h0.4c0.4,0,0.6,0.3,0.6,0.8c0,0.2,0,0.5-0.1,0.8c-0.1,0.3-0.2,0.7-0.4,1.2  c-0.7,1.6-1.6,2.8-2.6,3.5c-1,0.7-2.3,1.1-3.9,1.1h-3.2c-0.8,0-1.5,0.3-2.1,0.8c-0.5,0.5-0.8,1.4-0.8,2.6v1c0,1.3,0.3,2.3,1,2.9  c0.7,0.6,1.9,1,3.7,1h2.3c1.7,0,3.2-0.2,4.5-0.5c1.3-0.4,2.5-1,3.5-2c1.1-1,2.1-2.3,3-4c0.9-1.7,1.9-3.9,2.9-6.5l14-36.6  c0.3-0.8,0.4-1.5,0.4-2.3C471.7,46.2,471.5,45.5,470.9,45 M430,56.3c0-4.4-1-7.6-2.9-9.5c-1.9-1.9-5-2.8-9.1-2.8h-13.5  c-1.5,0-2.8,0.2-3.8,0.6c-1,0.4-1.8,1-2.4,1.7c-0.6,0.8-1,1.7-1.2,2.7c-0.2,1.1-0.3,2.3-0.3,3.6v27.9c0,1.3,0.2,2.3,0.7,3  c0.5,0.7,1.2,1.1,2.2,1.1h2.9c1,0,1.7-0.4,2.2-1.1c0.5-0.7,0.7-1.7,0.7-3V56.4c0-2.8,1.2-4.2,3.6-4.2h6.3c1.3,0,2.4,0.1,3.3,0.3  c0.8,0.2,1.5,0.5,1.9,1c0.5,0.5,0.8,1.1,1,1.8c0.2,0.7,0.3,1.5,0.4,2.5c0.1,2.3,1.1,3.4,3,3.4h2.3c1,0,1.7-0.4,2.1-1.1  c0.5-0.8,0.7-1.7,0.7-2.9V56.3z M377.9,76.3c-1.3,0-2.4-0.1-3.3-0.3c-0.8-0.2-1.5-0.7-1.9-1.3c-0.5-0.6-0.8-1.6-0.9-2.7  c-0.1-1.2-0.2-2.7-0.2-4.6V54.8c0-1.6,0.7-2.4,2.1-2.4h13.8c0.9,0,1.6-0.3,2.1-0.8c0.5-0.6,0.8-1.4,0.8-2.6v-1.2  c0-1.2-0.3-2-0.8-2.6c-0.5-0.6-1.2-0.8-2.1-0.8h-13.9c-0.7,0-1.2-0.2-1.5-0.5c-0.4-0.4-0.5-1-0.5-2v-4c0-1.3-0.2-2.3-0.7-3.1  c-0.5-0.8-1.2-1.1-2.2-1.1h-2.8c-1,0-1.7,0.4-2.1,1.1c-0.5,0.8-0.7,1.8-0.7,3.1v4c0,1.6-0.7,2.4-2.2,2.4h-2.2  c-0.9,0-1.6,0.3-2.1,0.9c-0.5,0.6-0.8,1.5-0.8,2.7v1.1c0,1.2,0.3,2.1,0.8,2.6c0.5,0.6,1.2,0.8,2.1,0.8h2.3c0.7,0,1.3,0.2,1.6,0.5  c0.4,0.3,0.5,1,0.5,1.9v15.2c0,2.7,0.2,5,0.5,6.9c0.3,1.9,1,3.5,1.9,4.6c0.9,1.2,2.2,2,3.8,2.6c1.6,0.6,3.7,0.8,6.3,0.8h2.8  c2.6,0,4.6-0.1,6.2-0.2c1.5-0.1,2.7-0.3,3.5-0.7c0.8-0.3,1.4-0.8,1.6-1.4c0.3-0.6,0.4-1.3,0.4-2.2v-1c0-2.1-1-3.2-3.1-3.2H377.9z   M351.6,71.6c0-2.5-0.3-4.5-0.8-6c-0.5-1.5-1.4-2.7-2.8-3.5c-1.4-0.8-3.3-1.4-5.7-1.6c-2.4-0.3-5.6-0.4-9.5-0.4  c-2.5,0-4.5-0.1-6-0.2c-1.5-0.1-2.6-0.3-3.3-0.6c-0.7-0.3-1.2-0.7-1.4-1.2c-0.2-0.5-0.3-1.2-0.3-2v-0.6c0-0.6,0.1-1.1,0.3-1.5  c0.2-0.4,0.5-0.8,0.9-1.1c0.4-0.3,1-0.5,1.7-0.7c0.7-0.2,1.7-0.3,2.9-0.3h19.8c0.9,0,1.6-0.2,2.1-0.7c0.5-0.4,0.8-1.2,0.8-2.4v-0.8  c0-0.8-0.2-1.5-0.5-2.1c-0.3-0.5-1-1-1.9-1.3c-1-0.3-2.3-0.5-4.1-0.7c-1.8-0.1-4.2-0.2-7.2-0.2H329c-3,0-5.5,0.2-7.5,0.6  c-2,0.4-3.6,1.1-4.7,2c-1.2,0.9-2,2.2-2.5,3.7c-0.5,1.5-0.7,3.4-0.7,5.7V57c0,2.2,0.2,4.1,0.6,5.5c0.4,1.4,1.3,2.6,2.6,3.4  c1.3,0.8,3.2,1.4,5.6,1.7c2.4,0.3,5.7,0.5,9.7,0.5c2.6,0,4.7,0.1,6.2,0.2c1.5,0.1,2.7,0.3,3.4,0.6c0.8,0.3,1.2,0.7,1.4,1.3  c0.2,0.5,0.3,1.2,0.3,2.1V73c0,0.7-0.1,1.3-0.3,1.8c-0.2,0.5-0.5,0.9-1,1.2c-0.5,0.3-1.2,0.5-2.2,0.7c-0.9,0.1-2.2,0.2-3.7,0.2  h-20.5c-0.9,0-1.6,0.2-2.1,0.7c-0.5,0.5-0.8,1.2-0.8,2.1v0.8c0,0.8,0.1,1.6,0.3,2.1c0.2,0.6,0.7,1.1,1.6,1.4  c0.8,0.3,2.1,0.6,3.8,0.7c1.7,0.1,4,0.2,6.9,0.2h10.8c3,0,5.5-0.2,7.6-0.7c2-0.4,3.6-1.2,4.8-2.1c1.2-1,2-2.3,2.5-3.8  c0.5-1.6,0.7-3.5,0.7-5.8V71.6z M305.1,48.4c0-1.3-0.2-2.3-0.7-3c-0.5-0.7-1.2-1.1-2.2-1.1h-2.9c-1,0-1.7,0.4-2.2,1.1  c-0.5,0.7-0.7,1.7-0.7,3v23.9c0,2.8-1.2,4.2-3.6,4.2H285c-2.4,0-4.2-0.1-5.6-0.4c-1.4-0.3-2.4-0.9-3.1-1.8c-0.7-1-1.1-2.4-1.4-4.2  c-0.2-1.9-0.3-4.4-0.3-7.7V48.4c0-1.3-0.2-2.3-0.7-3c-0.5-0.7-1.2-1.1-2.2-1.1h-3c-1,0-1.7,0.4-2.1,1.1c-0.5,0.7-0.7,1.7-0.7,3v17.3  c0,4.2,0.2,7.6,0.6,10.1c0.4,2.5,1.3,4.5,2.6,5.8c1.3,1.3,3.1,2.2,5.5,2.7c2.4,0.4,5.5,0.7,9.4,0.7h13.2c3,0,5.1-0.8,6.2-2.4  c1.1-1.6,1.7-3.7,1.7-6.3V48.4z M248.8,66.9c0,2-0.1,3.6-0.4,4.8c-0.3,1.3-0.7,2.3-1.4,3c-0.7,0.7-1.6,1.2-2.8,1.5  c-1.2,0.3-2.8,0.4-4.6,0.4h-3.3c-2.3,0-4.2-0.1-5.6-0.4c-1.4-0.3-2.5-0.8-3.3-1.7c-0.8-0.8-1.3-2-1.5-3.5c-0.2-1.5-0.3-3.5-0.3-6  v-1.4c0-2.5,0.1-4.5,0.4-6c0.3-1.5,0.8-2.7,1.5-3.5c0.8-0.8,1.8-1.4,3.3-1.6c1.4-0.3,3.3-0.4,5.6-0.4h5.1c1.6,0,2.8,0.1,3.8,0.3  c1,0.2,1.7,0.7,2.3,1.3c0.5,0.6,0.9,1.5,1.1,2.6c0.2,1.1,0.3,2.6,0.3,4.5V66.9z M257.4,31.6c0-1.3-0.2-2.3-0.7-3.1  c-0.5-0.8-1.2-1.1-2.2-1.1h-3c-1,0-1.7,0.4-2.1,1.1c-0.5,0.7-0.7,1.7-0.7,3v9.1c0,0.7-0.1,1.3-0.2,1.7c-0.1,0.4-0.3,0.8-0.6,1  c-0.3,0.3-0.8,0.4-1.4,0.5c-0.6,0.1-1.3,0.1-2.3,0.1h-10c-3.5,0-6.4,0.2-8.6,0.7c-2.2,0.5-4,1.4-5.3,2.9c-1.3,1.4-2.2,3.4-2.7,6  c-0.5,2.6-0.8,5.9-0.8,10.2v1.4c0,4.2,0.2,7.5,0.7,10.1c0.5,2.6,1.4,4.6,2.7,6c1.3,1.4,3.1,2.4,5.4,2.9c2.3,0.5,5.2,0.8,8.8,0.8h9  c2.7,0,4.9-0.3,6.7-1c1.8-0.6,3.2-1.6,4.3-2.9c1.1-1.3,1.8-2.9,2.3-4.8c0.5-1.9,0.7-4.1,0.7-6.6V31.6z M209.3,63.3  c0-4.2-0.2-7.5-0.7-10c-0.4-2.5-1.3-4.5-2.7-5.9c-1.3-1.4-3.2-2.3-5.7-2.7c-2.5-0.4-5.7-0.7-9.8-0.7h-12.6c-3,0-5.1,0.8-6.2,2.4  c-1.1,1.6-1.7,3.7-1.7,6.3v27.9c0,1.3,0.2,2.3,0.7,3c0.5,0.7,1.2,1.1,2.2,1.1h2.9c1,0,1.7-0.4,2.2-1.1c0.5-0.7,0.7-1.7,0.7-3V56.5  c0-2.8,1.2-4.2,3.6-4.2h7.3c2.5,0,4.5,0.1,5.9,0.4c1.5,0.3,2.6,0.9,3.3,1.8c0.8,1,1.2,2.4,1.5,4.2c0.2,1.9,0.3,4.4,0.3,7.7v14.2  c0,1.3,0.2,2.3,0.7,3c0.5,0.7,1.2,1.1,2.2,1.1h3c1,0,1.7-0.4,2.1-1.1c0.5-0.7,0.7-1.7,0.7-3V63.3z M160.7,31.6  c0-1.3-0.3-2.3-0.8-3.1c-0.5-0.8-1.2-1.1-2.2-1.1h-3.5c-1,0-1.8,0.4-2.2,1.1c-0.5,0.7-0.7,1.7-0.7,3v49c0,1.3,0.3,2.3,0.8,3.1  c0.5,0.8,1.3,1.1,2.3,1.1h3.5c1,0,1.7-0.4,2.2-1.1c0.5-0.7,0.7-1.7,0.7-3V31.6z"/>
    <path class="st1" d="M12.5,34.4c4.1,0,7.4-3.2,7.4-7.2c0-4-3.3-7.2-7.4-7.2c-4.1,0-7.4,3.2-7.4,7.2C5.2,31.2,8.5,34.4,12.5,34.4"/>
    <path class="st1" d="M35.9,79.6c-5.3,15.7-10.3,33.6-14,53c-0.2,0.8-0.3,1.6-0.3,2.3c0.1,0.7,0.9,0.3,2-2.6  c2.6-6.8,10.5-24.4,19.7-42.6C40.7,86.2,38.2,82.9,35.9,79.6 M126.5,94.5C124.1,66.6,98.2,10.3,78.6,6c0,0-4.8-1.5-10.9,4.7  c-1.5,1.4-3,3.3-4.6,5.7c-0.8,1.3-9.2,16.2-19,41.3c3.1,4.2,5.1,7,9.4,12.1c8.1-15.2,15.1-26.2,19-28.8c5.8-4.2,13.8,5.8,22.5,21.4  c8,12.6,15.1,39,11.3,50.2c-0.2,0.4-0.6,1-0.7,1c-0.1,0.1-0.1,0.1-0.2,0.1c-6.6,5-32.1-14.2-44-27.8c-17.2-19.7-31.6-41-37.9-44.6  C16,38,30.4,62.9,37.1,73.8c10.4,16.7,23.5,34.7,54.1,53.3c2.6,1.5,11,4.8,11,5c7.1,2.2,15,3.4,19.6,1c0.4-0.3,0.8-0.6,1.2-1.1  C128.5,126.3,127.5,103.2,126.5,94.5"/>
</svg>
